<?xml version="1.0" encoding="UTF-8" standalone="no"?>
<svg
   class="icon"
   viewBox="0 0 1024 1024"
   version="1.1"
   id="svg249"
   sodipodi:docname="project_icon.svg"
   inkscape:version="1.2.2 (732a01da63, 2022-12-09)"
   xmlns:inkscape="http://www.inkscape.org/namespaces/inkscape"
   xmlns:sodipodi="http://sodipodi.sourceforge.net/DTD/sodipodi-0.dtd"
   xmlns="http://www.w3.org/2000/svg"
   xmlns:svg="http://www.w3.org/2000/svg">
  <defs
     id="defs253" />
  <sodipodi:namedview
     id="namedview251"
     pagecolor="#ffffff"
     bordercolor="#000000"
     borderopacity="0.25"
     inkscape:showpageshadow="2"
     inkscape:pageopacity="0.0"
     inkscape:pagecheckerboard="0"
     inkscape:deskcolor="#d1d1d1"
     showgrid="false"
     inkscape:zoom="0.78710938"
     inkscape:cx="512"
     inkscape:cy="512"
     inkscape:window-width="1920"
     inkscape:window-height="1009"
     inkscape:window-x="-8"
     inkscape:window-y="-8"
     inkscape:window-maximized="1"
     inkscape:current-layer="svg249" />
  <path
     d="M280 752h80c4.4 0 8-3.6 8-8V280c0-4.4-3.6-8-8-8h-80c-4.4 0-8 3.6-8 8v464c0 4.4 3.6 8 8 8zm192-280h80c4.4 0 8-3.6 8-8V280c0-4.4-3.6-8-8-8h-80c-4.4 0-8 3.6-8 8v184c0 4.4 3.6 8 8 8zm192 72h80c4.4 0 8-3.6 8-8V280c0-4.4-3.6-8-8-8h-80c-4.4 0-8 3.6-8 8v256c0 4.4 3.6 8 8 8zm216-432H144c-17.7 0-32 14.3-32 32v736c0 17.7 14.3 32 32 32h736c17.7 0 32-14.3 32-32V144c0-17.7-14.3-32-32-32zm-40 728H184V184h656v656z"
     id="path247"
     style="fill:#ffffff" />
</svg>
